<?xml version="1.0" encoding="UTF-8" standalone="no"?>
<svg
   xmlns:dc="http://purl.org/dc/elements/1.1/"
   xmlns:cc="http://creativecommons.org/ns#"
   xmlns:rdf="http://www.w3.org/1999/02/22-rdf-syntax-ns#"
   xmlns:svg="http://www.w3.org/2000/svg"
   xmlns="http://www.w3.org/2000/svg"
   xmlns:sodipodi="http://sodipodi.sourceforge.net/DTD/sodipodi-0.dtd"
   xmlns:inkscape="http://www.inkscape.org/namespaces/inkscape"
   inkscape:version="1.0 (4035a4fb49, 2020-05-01)"
   height="341.54691"
   width="1440"
   sodipodi:docname="whale_wave.svg"
   version="1.1"
   viewBox="0 0 1440 341.5469"
   id="Layer_2">
  <metadata
     id="metadata88">
    <rdf:RDF>
      <cc:Work
         rdf:about="">
        <dc:format>image/svg+xml</dc:format>
        <dc:type
           rdf:resource="http://purl.org/dc/dcmitype/StillImage" />
        <dc:title />
      </cc:Work>
    </rdf:RDF>
  </metadata>
  <sodipodi:namedview
     inkscape:guide-bbox="true"
     showguides="true"
     inkscape:current-layer="g1041"
     inkscape:window-maximized="1"
     inkscape:window-y="-8"
     inkscape:window-x="1672"
     inkscape:cy="237.29225"
     inkscape:cx="760.83022"
     inkscape:zoom="0.74884574"
     fit-margin-bottom="0"
     fit-margin-right="0"
     fit-margin-left="0"
     fit-margin-top="0"
     showgrid="false"
     id="namedview86"
     inkscape:window-height="987"
     inkscape:window-width="1680"
     inkscape:pageshadow="2"
     inkscape:pageopacity="0"
     guidetolerance="10"
     gridtolerance="10"
     objecttolerance="10"
     borderopacity="1"
     bordercolor="#666666"
     pagecolor="#000000"
     inkscape:document-rotation="0" />
  <defs
     id="defs52">
    <style
       id="style50">.cls-1{fill:none;}.cls-2{fill:#003087;}.cls-3{fill:#0085ca;}.cls-4{fill:#a6d4ec;}.cls-5{fill:#54addb;}</style>
  </defs>
  <g
     transform="translate(0,-195.48032)"
     id="g954">
    <g
       id="g1023">
      <g
         style="fill:#ffffff;fill-opacity:1"
         id="g1032">
        <g
           id="g1041">
          <g
             style="fill:#0085ca;fill-opacity:1"
             transform="matrix(0.62499809,0,0,0.625,-303.23656,-62.777455)"
             id="Layer_1-2">
            <g
               style="fill:#0085ca;fill-opacity:1"
               id="g82">
              <path
                 style="fill:#0085ca;fill-opacity:1;stroke-width:0.75"
                 id="path66"
                 d="m 1030.1505,513.63044 c 1.0425,-1.8375 2.4675,-3.48 4.2075,-4.965 8.0175,-6.8325 22.6725,-10.2975 36.72,-13.5525 2.445,-0.5625 4.8675,-1.125 7.2375,-1.695 0.015,0 0.023,0 0.038,-0.008 0.285,-0.0675 0.5775,-0.1425 0.8775,-0.225 0.105,-0.03 0.2175,-0.0675 0.3225,-0.0975 0.21,-0.06 0.42,-0.12 0.645,-0.195 0.135,-0.045 0.2775,-0.09 0.4125,-0.135 0.2025,-0.0675 0.405,-0.1275 0.615,-0.2025 0.15,-0.0525 0.3075,-0.1125 0.4575,-0.165 0.2025,-0.075 0.405,-0.1425 0.615,-0.225 0.165,-0.06 0.3375,-0.1275 0.5025,-0.195 0.21,-0.0825 0.4125,-0.1575 0.6225,-0.24 0.1725,-0.0675 0.3525,-0.1425 0.525,-0.2175 0.2175,-0.09 0.4275,-0.1725 0.645,-0.2625 0.18,-0.075 0.375,-0.1575 0.5625,-0.24 0.2175,-0.0975 0.435,-0.1875 0.66,-0.285 0.195,-0.0825 0.39,-0.18 0.585,-0.2625 0.225,-0.0975 0.4425,-0.2025 0.6675,-0.3075 0.2025,-0.09 0.405,-0.195 0.615,-0.2925 0.2325,-0.105 0.4575,-0.2175 0.69,-0.33 0.21,-0.0975 0.42,-0.2025 0.63,-0.3075 0.2325,-0.1125 0.465,-0.225 0.705,-0.345 0.2175,-0.1125 0.4425,-0.225 0.66,-0.3375 0.2325,-0.12 0.465,-0.24 0.705,-0.36 0.225,-0.12 0.4575,-0.24 0.69,-0.36 0.2325,-0.1275 0.4725,-0.2475 0.7125,-0.375 0.2325,-0.1275 0.4725,-0.255 0.7125,-0.3825 0.24,-0.1275 0.48,-0.255 0.72,-0.39 0.24,-0.135 0.4875,-0.27 0.735,-0.405 0.24,-0.135 0.48,-0.2625 0.72,-0.3975 0.2475,-0.1425 0.5025,-0.285 0.75,-0.4275 0.24,-0.135 0.48,-0.2775 0.7275,-0.42 0.255,-0.15 0.51,-0.3 0.765,-0.45 0.24,-0.1425 0.4875,-0.285 0.7275,-0.4275 0.2625,-0.1575 0.5325,-0.315 0.795,-0.4725 0.24,-0.1425 0.48,-0.285 0.72,-0.435 0.2625,-0.165 0.5325,-0.33 0.8025,-0.495 0.2475,-0.15 0.4875,-0.3 0.735,-0.4575 0.27,-0.165 0.54,-0.3375 0.81,-0.51 0.24,-0.15 0.4875,-0.3075 0.7275,-0.4575 0.2775,-0.1725 0.555,-0.3525 0.8325,-0.5325 0.24,-0.1575 0.4875,-0.315 0.7275,-0.4725 0.2775,-0.18 0.555,-0.36 0.8325,-0.5475 0.24,-0.1575 0.4875,-0.3225 0.7275,-0.48 0.2775,-0.1875 0.5625,-0.375 0.84,-0.5625 0.24,-0.165 0.4875,-0.33 0.7275,-0.495 0.285,-0.195 0.5625,-0.39 0.8475,-0.585 0.24,-0.165 0.48,-0.33 0.72,-0.5025 0.285,-0.2025 0.5775,-0.405 0.8625,-0.6075 0.2325,-0.165 0.4725,-0.33 0.705,-0.495 0.2925,-0.21 0.585,-0.42 0.8775,-0.63 0.2325,-0.165 0.4575,-0.33 0.69,-0.495 0.2925,-0.2175 0.585,-0.4275 0.885,-0.645 0.225,-0.165 0.45,-0.3375 0.6825,-0.5025 0.2925,-0.2175 0.585,-0.4425 0.885,-0.66 0.225,-0.1725 0.45,-0.3375 0.675,-0.51 0.2925,-0.225 0.5925,-0.45 0.885,-0.675 0.2175,-0.1725 0.4425,-0.3375 0.66,-0.51 0.2925,-0.2325 0.5925,-0.465 0.885,-0.6975 0.2175,-0.1725 0.4275,-0.3375 0.645,-0.51 0.3,-0.24 0.5925,-0.4725 0.885,-0.7125 0.21,-0.1725 0.42,-0.3375 0.63,-0.51 0.2925,-0.24 0.585,-0.48 0.8775,-0.7275 0.21,-0.1725 0.4125,-0.345 0.6225,-0.5175 0.2925,-0.2475 0.585,-0.4875 0.87,-0.735 0.2025,-0.1725 0.405,-0.345 0.6075,-0.5175 0.2925,-0.2475 0.5775,-0.5025 0.8625,-0.75 0.195,-0.1725 0.39,-0.345 0.5925,-0.5175 0.285,-0.255 0.57,-0.51 0.855,-0.765 0.195,-0.1725 0.3825,-0.345 0.5775,-0.5175 0.285,-0.255 0.5625,-0.5175 0.84,-0.7725 0.1875,-0.1725 0.375,-0.345 0.555,-0.5175 0.2775,-0.2625 0.555,-0.525 0.8325,-0.78 0.18,-0.1725 0.36,-0.345 0.54,-0.5175 0.2775,-0.2625 0.5475,-0.5325 0.8175,-0.795 0.1725,-0.1725 0.345,-0.345 0.5175,-0.51 0.27,-0.27 0.5325,-0.54 0.8025,-0.8025 0.165,-0.1725 0.3375,-0.345 0.5025,-0.5175 0.2625,-0.27 0.525,-0.54 0.78,-0.81 0.165,-0.1725 0.3225,-0.3375 0.48,-0.51 0.255,-0.27 0.51,-0.5475 0.765,-0.825 0.1575,-0.1725 0.3075,-0.3375 0.4575,-0.51 0.2475,-0.2775 0.495,-0.555 0.7425,-0.8325 0.15,-0.165 0.2925,-0.3375 0.435,-0.5025 0.24,-0.2775 0.48,-0.555 0.7125,-0.8325 0.1425,-0.165 0.2775,-0.33 0.4125,-0.495 0.2325,-0.2775 0.465,-0.5625 0.69,-0.84 0.135,-0.165 0.2625,-0.33 0.39,-0.495 0.225,-0.285 0.4425,-0.5625 0.66,-0.8475 0.1275,-0.165 0.2475,-0.33 0.3675,-0.4875 0.21,-0.285 0.4275,-0.57 0.63,-0.8475 0.12,-0.165 0.2325,-0.3225 0.345,-0.4875 0.2025,-0.285 0.405,-0.57 0.6,-0.855 0.1125,-0.1575 0.2175,-0.315 0.3225,-0.48 0.195,-0.285 0.3825,-0.57 0.57,-0.8625 0.098,-0.1575 0.195,-0.315 0.2925,-0.465 0.18,-0.285 0.36,-0.5775 0.5325,-0.8625 0.09,-0.1575 0.18,-0.3075 0.27,-0.4575 0.165,-0.285 0.3375,-0.5775 0.495,-0.8625 0.082,-0.15 0.165,-0.3 0.24,-0.45 0.1575,-0.285 0.3075,-0.5775 0.45,-0.8625 0.075,-0.15 0.1425,-0.2925 0.2175,-0.4425 0.1425,-0.2925 0.285,-0.5775 0.4125,-0.87 0.067,-0.1425 0.1275,-0.285 0.1875,-0.4275 0.1275,-0.2925 0.255,-0.5775 0.3675,-0.87 0.06,-0.1425 0.105,-0.2775 0.1575,-0.42 0.1125,-0.2925 0.225,-0.5775 0.3225,-0.87 0.045,-0.135 0.09,-0.27 0.135,-0.405 0.098,-0.2925 0.1875,-0.585 0.27,-0.87 0.038,-0.135 0.068,-0.2625 0.105,-0.3975 0.075,-0.2925 0.1575,-0.585 0.225,-0.87 0.03,-0.1275 0.053,-0.255 0.075,-0.3825 0.06,-0.2925 0.12,-0.585 0.165,-0.87 0.022,-0.12 0.03,-0.24 0.053,-0.36 0.045,-0.2925 0.082,-0.585 0.1125,-0.8775 0.01,-0.1125 0.015,-0.225 0.023,-0.345 0.03,-0.36 0.037,-0.7125 0.045,-1.065 0,-0.135 0,-0.2775 0,-0.4125 0,-0.21 0,-0.4125 -0.015,-0.6225 -0.01,-0.18 -0.023,-0.3525 -0.038,-0.5325 -0.015,-0.15 -0.03,-0.3075 -0.045,-0.4575 -0.023,-0.21 -0.053,-0.42 -0.082,-0.63 -0.015,-0.09 -0.03,-0.18 -0.053,-0.27 -0.21,-1.1625 -0.5625,-2.3025 -1.08,-3.3975 -0.225,-0.4875 -0.4725,-0.9675 -0.765,-1.4325 -3.045,5.3775 -7.935,9.3075 -30.2175,7.5975 -1.68,-0.1275 -3.54,-0.1725 -5.5275,-0.1425 -0.9375,0.015 -1.8975,0.0375 -2.8875,0.0825 -11.73,0.5175 -27.2325,3.15 -40.98,6.1725 -0.81,0.18 -1.62,0.36 -2.415,0.54 -14.3325,3.2475 -26.3175,6.8175 -29.37,8.67 -9.6225,16.9725 -10.0125,7.59 -16.0425,-3.6225 -25.77749,-17.9625 -55.42499,-18.495 -76.02749,-22.65 -4.9125,-0.99 -9.315,-2.19 -13.02,-3.8775 -0.7275,-0.015 -1.4175,-0.465 -2.1,-1.1625 -0.8625,-0.8925 -1.7025,-2.19 -2.55,-3.54 -0.225,0.3075 -0.42,0.6225 -0.6225,0.9375 -0.225,0.36 -0.4275,0.72 -0.6225,1.095 -0.007,0.0225 -0.0225,0.045 -0.0375,0.0675 -0.1125,0.2175 -0.21,0.45 -0.315,0.675 0,0 0,0 0,0 -0.06,0.135 -0.135,0.27 -0.195,0.4125 -0.015,0.0375 -0.0375,0.075 -0.0525,0.12 -0.15,0.36 -0.2775,0.72 -0.405,1.0875 -0.015,0.0525 -0.0375,0.1125 -0.06,0.165 -0.1125,0.36 -0.2175,0.72 -0.3075,1.0875 -0.015,0.0675 -0.0375,0.1425 -0.0525,0.21 -0.0825,0.36 -0.1575,0.7275 -0.2175,1.095 -0.015,0.0825 -0.03,0.165 -0.045,0.255 -0.0525,0.36 -0.0975,0.7275 -0.135,1.1025 -0.008,0.0975 -0.0225,0.195 -0.03,0.3 -0.03,0.36 -0.045,0.735 -0.0525,1.1025 0,0.1125 0,0.225 -0.008,0.3375 0,0.3675 0,0.735 0.0225,1.11 0,0.1275 0.008,0.2475 0.015,0.375 0.0225,0.3675 0.0525,0.735 0.09,1.11 0.015,0.135 0.03,0.2775 0.045,0.42 0.045,0.3675 0.0975,0.735 0.1575,1.11 0.0225,0.15 0.0525,0.3 0.075,0.4575 0.0675,0.3675 0.1425,0.7425 0.225,1.1175 0.0375,0.165 0.075,0.33 0.1125,0.495 0.09,0.3675 0.1875,0.7425 0.285,1.1175 0.045,0.18 0.0975,0.3525 0.15,0.5325 0.105,0.3675 0.225,0.7425 0.345,1.1175 0.06,0.1875 0.1275,0.3825 0.195,0.57 0.1275,0.3675 0.2625,0.7425 0.405,1.1175 0.075,0.2025 0.1575,0.405 0.2325,0.6075 0.1425,0.3675 0.3,0.7425 0.4575,1.11 0.09,0.2175 0.1875,0.435 0.285,0.6525 0.165,0.3675 0.33,0.735 0.51,1.11 0.105,0.225 0.2175,0.4575 0.3375,0.69 0.18,0.3675 0.36,0.735 0.555,1.1025 0.1275,0.24 0.255,0.4875 0.39,0.7275 0.195,0.3675 0.3975,0.7275 0.6,1.095 0.1425,0.255 0.2925,0.51 0.4425,0.765 0.21,0.36 0.42,0.7275 0.645,1.095 0.165,0.27 0.33,0.5325 0.495,0.8025 0.225,0.36 0.45,0.72 0.69,1.0875 0.18,0.2775 0.3675,0.5625 0.555,0.84 0.24,0.36 0.48,0.72 0.7275,1.08 0.2025,0.2925 0.4125,0.585 0.615,0.8775 0.255,0.36 0.5025,0.7125 0.7725,1.0725 0.225,0.3 0.45,0.6075 0.6825,0.915 0.2625,0.3525 0.5325,0.705 0.8025,1.065 0.24,0.315 0.495,0.63 0.75,0.9525 0.2775,0.3525 0.555,0.705 0.84,1.0575 0.2625,0.33 0.54,0.66 0.81,0.9825 0.285,0.345 0.57,0.6975 0.87,1.0425 0.2925,0.3375 0.5925,0.6825 0.885,1.0275 0.3,0.345 0.5925,0.6825 0.9,1.035 0.315,0.3525 0.645,0.7125 0.9675,1.065 0.3075,0.3375 0.6075,0.675 0.915,1.0125 0.345,0.375 0.705,0.7425 1.0575,1.1175 0.3075,0.33 0.615,0.6525 0.93,0.9825 0.375,0.39 0.765,0.78 1.1475,1.17 0.315,0.315 0.615,0.63 0.9375,0.9525 0.4125,0.4125 0.8475,0.8325 1.2675,1.245 0.3075,0.3 0.6075,0.6 0.915,0.9 0.4725,0.4575 0.9675,0.915 1.455,1.38 0.2775,0.2625 0.5475,0.525 0.8325,0.7875 0.7125,0.66 1.44,1.3275 2.175,1.9875 0.0675,0.06 0.135,0.1275 0.21,0.1875 4.11,3.6975 8.34,6.6225 12.555,9.045 0.42,0.24 0.84,0.48 1.2675,0.7125 0.84,0.465 1.6875,0.9075 2.5275,1.335 1.26,0.645 2.52,1.245 3.765,1.815 0.8325,0.3825 1.665,0.75 2.49,1.1025 2.8875,1.245 5.73,2.3475 8.475,3.39 0.7875,0.3 1.56,0.5925 2.3325,0.885 2.3025,0.8775 4.53,1.7325 6.6525,2.625 0.705,0.3 1.4025,0.6 2.0925,0.9075 0.345,0.1575 0.6825,0.3075 1.02,0.465 1.3425,0.63 2.6325,1.29 3.87,1.995 0.615,0.3525 1.215,0.7125 1.8,1.095 0.585,0.375 1.155,0.765 1.71,1.1775 0.27749,0.2025 0.54749,0.4125 0.81749,0.6225 0.5325,0.42 1.0575,0.8625 1.5525,1.32 1.5,1.3725 2.835,2.9175 3.9825,4.6875 0.57,0.885 1.1025,1.83 1.575,2.835 0.1575,0.3375 0.3075,0.675 0.4575,1.0275 1.0275,2.4525 1.7775,5.2575 2.1975,8.52 0.405,3.14249 0.585,6.42749 0.5775,9.79499 0,1.6875 -0.053,3.3975 -0.1425,5.1225 -1.0875,20.7075 -8.025,43.725 -11.19749,57.7725 -0.2625,1.17 -0.5025,2.28 -0.705,3.315 -0.1725,1.305 -0.33,2.6325 -0.4875,3.9825 5.12249,-1.47 10.33499,-3.06 15.62249,-4.725 -0.4725,-22.6275 6.5925,-70.695 6.975,-93.77249 0.06,3.4125 0.99,66.56249 -3.5475,92.68499 5.3025,-1.695 10.68,-3.465 16.125,-5.2725 -7.455,-28.1625 -9.4425,-59.6175 -3.405,-70.28249 z"
                 class="cls-4" />
            </g>
          </g>
          <path
             fill="#ffffff"
             fill-opacity="1"
             d="m 0,345.02723 48,-10.69999 c 48,-10.3 144,-32.3 240,-37.3 96,-5 192,5 288,32 96,26.99999 192,68.99999 288,69.29999 96,-0.3 192,-42.3 288,-58.59999 96,-15.7 192,-5.7 240,0 l 48,5.29999 v 192 h -48 c -48,0 -144,0 -240,0 -96,0 -192,0 -288,0 -96,0 -192,0 -288,0 -96,0 -192,0 -288,0 -96,0 -192,0 -240,0 H 0 Z"
             id="path117"
             style="fill:#ffffff;fill-opacity:1" />
          <path
             d="m 880.94069,232.39763 c -0.0155,-0.007 -0.0276,0.005 -0.0276,0.0138 0,0.33352 4.81879,6.73642 8.48237,11.27298 7.86362,9.73742 24.26435,29.35963 26.48323,31.67764 1.70626,1.78249 2.06761,2.41311 1.87883,3.35703 -0.17057,0.85283 0.0708,1.49532 0.9256,2.41762 1.10129,1.1883 1.15166,1.43027 0.88416,4.37933 -0.15569,1.71633 -0.76072,5.22899 -1.34005,7.80544 -0.57934,2.57644 -1.43916,8.24609 -1.92028,12.59921 -2.89582,26.20119 -3.99345,38.14438 -4.22737,46.15569 l -0.19341,6.85221 0.85653,-7.07325 c 2.36701,-19.61178 7.07272,-51.93485 9.35271,-64.23943 l 0.9256,-5.00098 1.60253,0.13815 1.60253,0.13814 -0.0414,32.49272 c -0.0814,56.33011 0.006,92.87106 -0.11052,101.98184 h 7.8607 c -0.25667,-1.71183 -0.40452,-5.17375 -0.56641,-12.24003 -0.47645,-20.79574 -1.14288,-45.77287 -1.61635,-60.78571 -0.7716,-24.46572 -0.86915,-28.32959 -1.14664,-45.21627 l -0.26248,-16.48121 3.75766,0.0553 c 2.06793,0.0352 3.95364,-0.0551 4.19974,-0.20723 0.63204,-0.39062 1.51131,-4.76066 1.04993,-5.22204 -0.20926,-0.20926 -1.40521,-0.54666 -2.66628,-0.74601 -1.26107,-0.19935 -2.39707,-0.44916 -2.51432,-0.56641 -0.37696,-0.37697 10.96188,-10.00886 20.59807,-17.4897 2.00161,-1.55392 8.47281,-6.2893 12.73737,-9.32509 8.10403,-5.76898 -2.48755,-0.0436 -16.96474,9.17312 -2.67457,1.70273 -5.44787,3.42488 -6.16146,3.82674 -2.54241,1.43174 -14.22439,9.19014 -17.31011,11.49402 -3.19605,2.38625 -4.86875,3.1161 -5.77465,2.51432 -0.27815,-0.18478 -1.30772,-2.02251 -2.29327,-4.08922 -2.06151,-4.32301 -2.10159,-4.37044 -10.9138,-12.58541 -7.03551,-6.55865 -15.21786,-14.71856 -22.6427,-22.55978 -2.33645,-2.46748 -4.27052,-4.40641 -4.50367,-4.51748 z"
             id="path3196"
             style="fill:#ffffff;fill-opacity:1;stroke-width:0.25" />
          <path
             style="fill:#ffffff;fill-opacity:1;stroke-width:0.2"
             id="path3196-2"
             d="m 997.3341,261.4813 c -0.0124,-0.006 -0.0221,0.004 -0.0221,0.011 0,0.26682 3.855,5.38914 6.7859,9.01839 6.2909,7.78993 19.4115,23.4877 21.1866,25.34211 1.365,1.42598 1.6541,1.93048 1.503,2.68562 -0.1364,0.68226 0.057,1.19625 0.7405,1.93409 0.881,0.95065 0.9213,1.14422 0.7073,3.50347 -0.1245,1.37307 -0.6085,4.18319 -1.072,6.24435 -0.4635,2.06116 -1.1513,6.59687 -1.5362,10.07937 -2.3167,20.96095 -3.1948,30.51551 -3.3819,36.92456 l -0.1547,5.48176 0.6852,-5.65859 c 1.8936,-15.68943 5.6582,-41.54789 7.4821,-51.39155 l 0.7405,-4.00079 1.2821,0.11052 1.282,0.11052 -0.033,25.99417 c -0.065,45.06409 0,74.29685 -0.088,81.58547 h 6.2885 c -0.2053,-1.36946 -0.3236,-4.139 -0.4531,-9.79202 -0.3811,-16.63659 -0.9143,-36.6183 -1.2931,-48.62857 -0.6172,-19.57258 -0.6953,-22.66367 -0.9173,-36.17302 l -0.21,-13.18497 3.0062,0.0442 c 1.6543,0.0282 3.1629,-0.0441 3.3598,-0.16578 0.5056,-0.31249 1.209,-3.80853 0.8399,-4.17763 -0.1674,-0.16741 -1.1242,-0.43733 -2.133,-0.59681 -1.0089,-0.15948 -1.9177,-0.35933 -2.0115,-0.45313 -0.3015,-0.30157 8.7695,-8.00708 16.4785,-13.99176 1.6013,-1.24313 6.7782,-5.03143 10.1899,-7.46007 6.4832,-4.61518 -1.9901,-0.0349 -13.5718,7.3385 -2.1397,1.36218 -4.3583,2.7399 -4.9292,3.06139 -2.0339,1.14539 -11.3795,7.35211 -13.8481,9.19522 -2.5568,1.90899 -3.895,2.49288 -4.6197,2.01145 -0.2225,-0.14782 -1.0462,-1.61801 -1.8346,-3.27138 -1.6492,-3.4584 -1.6813,-3.49634 -8.731,-10.06832 -5.6285,-5.24693 -12.1743,-11.77485 -18.1142,-18.04783 -1.86916,-1.97398 -3.41642,-3.52513 -3.60293,-3.61398 z" />
          <path
             style="fill:#ffffff;fill-opacity:1;stroke-width:0.15"
             id="path3196-6"
             d="m 1093.9147,284.5152 c -0.01,-0.004 -0.017,0.003 -0.017,0.008 0,0.20012 2.8912,4.04186 5.0894,6.76379 4.7182,5.84245 14.5586,17.61578 15.8899,19.00659 1.0238,1.06949 1.2406,1.44786 1.1273,2.01421 -0.1023,0.5117 0.042,0.89719 0.5554,1.45057 0.6608,0.71299 0.691,0.85816 0.5305,2.6276 -0.093,1.0298 -0.4565,3.1374 -0.8041,4.68327 -0.3476,1.54586 -0.8635,4.94765 -1.1521,7.55953 -1.7375,15.72071 -2.3961,22.88663 -2.5364,27.69341 l -0.1161,4.11132 0.5139,-4.24394 c 1.4202,-11.76707 4.2437,-31.16091 5.6117,-38.54367 l 0.5553,-3.00059 0.9615,0.0829 0.9616,0.0829 -0.025,19.49564 c -0.049,33.79806 0,55.72263 -0.066,61.1891 h 4.7164 c -0.154,-1.0271 -0.2427,-3.10425 -0.3399,-7.34402 -0.2858,-12.47744 -0.6857,-27.46372 -0.9698,-36.47142 -0.4629,-14.67944 -0.5215,-16.99776 -0.688,-27.12977 l -0.1575,-9.88873 2.2546,0.0332 c 1.2408,0.0211 2.3722,-0.0331 2.5199,-0.12433 0.3792,-0.23438 0.9068,-2.8564 0.6299,-3.13323 -0.1255,-0.12556 -0.8431,-0.32799 -1.5997,-0.4476 -0.7567,-0.11961 -1.4383,-0.2695 -1.5086,-0.33985 -0.2262,-0.22618 6.5771,-6.00531 12.3587,-10.49382 1.201,-0.93235 5.0837,-3.77358 7.6424,-5.59505 4.8625,-3.46139 -1.4925,-0.0262 -10.1787,5.50387 -1.6047,1.02164 -3.2687,2.05493 -3.6969,2.29604 -1.5254,0.85905 -8.5346,5.51409 -10.386,6.89642 -1.9177,1.43174 -2.9213,1.86966 -3.4648,1.50859 -0.1669,-0.11087 -0.7847,-1.21351 -1.376,-2.45353 -1.2369,-2.59381 -1.2609,-2.62227 -6.5483,-7.55125 -4.2213,-3.93519 -9.1307,-8.83113 -13.5856,-13.53587 -1.4019,-1.48049 -2.5623,-2.64385 -2.7022,-2.71049 z" />
        </g>
      </g>
    </g>
  </g>
  <style
     id="style121"
     type="text/css">
	.st0{fill:#2EAA9E;}
</style>
</svg>
