<?xml version="1.0" encoding="UTF-8" standalone="no"?>
<svg
   xmlns:dc="http://purl.org/dc/elements/1.1/"
   xmlns:cc="http://creativecommons.org/ns#"
   xmlns:rdf="http://www.w3.org/1999/02/22-rdf-syntax-ns#"
   xmlns:svg="http://www.w3.org/2000/svg"
   xmlns="http://www.w3.org/2000/svg"
   xmlns:sodipodi="http://sodipodi.sourceforge.net/DTD/sodipodi-0.dtd"
   xmlns:inkscape="http://www.inkscape.org/namespaces/inkscape"
   viewBox="0 0 96.002197 50.673573"
   x="0px"
   y="0px"
   version="1.1"
   id="svg889"
   sodipodi:docname="austria_outline.svg"
   width="96.002197"
   height="50.673573"
   inkscape:version="0.92.3 (d244b95, 2018-08-02)">
  <metadata
     id="metadata895">
    <rdf:RDF>
      <cc:Work
         rdf:about="">
        <dc:format>image/svg+xml</dc:format>
        <dc:type
           rdf:resource="http://purl.org/dc/dcmitype/StillImage" />
        <dc:title></dc:title>
      </cc:Work>
    </rdf:RDF>
  </metadata>
  <defs
     id="defs893" />
  <sodipodi:namedview
     pagecolor="#ffffff"
     bordercolor="#666666"
     borderopacity="1"
     objecttolerance="10"
     gridtolerance="10"
     guidetolerance="10"
     inkscape:pageopacity="0"
     inkscape:pageshadow="2"
     inkscape:window-width="1535"
     inkscape:window-height="876"
     id="namedview891"
     showgrid="false"
     fit-margin-top="0"
     fit-margin-left="0"
     fit-margin-right="0"
     fit-margin-bottom="0"
     inkscape:zoom="10.583333"
     inkscape:cx="47.972037"
     inkscape:cy="18.901669"
     inkscape:window-x="65"
     inkscape:window-y="24"
     inkscape:window-maximized="1"
     inkscape:current-layer="svg889" />
  <path
     d="m 52.402129,9.844666 1.574037,-5.9214824 3.369749,5.2665899 2.750144,0.5331873 1.706381,-2.5906149 0.857575,0.69514 c 0.470432,0.381327 0.872145,0.6909906 1.200566,0.9268164 0.393781,-1.5075472 1.280507,-3.3777472 2.196381,-3.3777472 h 1.503376 V 0 l 2.751942,2.2707539 c 0.240988,-0.2128888 0.494164,-0.3748669 0.778777,-0.471879 0.165714,-0.056484 0.337455,-0.087777 0.514511,-0.087777 0.607479,0 2.202456,0.7463984 5.627894,2.5450523 l 1.956145,-0.8049008 2.637338,2.7196243 h 3.22749 l 1.899229,-2.002761 5.417097,2.2880925 0.895654,4.5299738 -1.362243,2.574641 4.098027,6.664416 -1.745072,3.250638 1.216085,3.530704 -7.896157,-0.845903 -0.189738,0.193141 2.458185,0.681355 -0.891379,4.547147 -1.889687,1.281224 0.65935,6.593503 h -2.999254 l -2.969126,2.635973 1.063932,4.912744 -4.670434,-2.300836 c -0.387561,0.204702 -0.761245,0.397298 -1.123916,0.577679 -0.09058,0.04505 -0.179531,0.08886 -0.266676,0.131326 -1.084361,0.528368 -1.698973,0.779674 -2.154411,0.779674 -0.418993,0 -2.243982,-0.187185 -5.668475,-0.576985 -3.754533,3.863896 -5.042826,5.056953 -5.795584,5.056953 -0.46988,0 -3.536133,-0.852644 -10.566558,-2.900897 L 37.60105,45.502193 32.372982,39.669905 32.653245,39.148864 29.432991,40.525253 H 22.825063 L 21.207682,43.76776 12.848754,42.08987 12.069087,40.483605 9.7346665,42.355993 5.8191007,40.749124 V 39.31178 L 0,38.394648 1.1046768,33.226495 2.1096077,32.160772 0.57375152,28.56687 8.1679877,27.746528 10.352347,32.172201 12.53181,30.493715 v -3.446607 l 6.920252,1.182738 0.627175,2.413127 h 3.315774 l 3.394405,-3.38485 7.207918,-0.4527 0.349579,-2.809014 4.675078,1.867627 h 2.45642 l 1.219848,2.262671 1.098144,0.748378 0.516164,-1.607689 -2.325172,-1.595046 1.186274,-1.780845 -3.030457,-5.609532 7.763224,-4.56555 1.783463,-4.9311788 z m 2.33919,-1.0147394 -0.981464,3.6922404 -2.886871,-1.127638 -1.331051,3.680284 -6.72237,3.953424 2.685476,4.970956 -0.759361,1.139961 1.926446,1.321523 -1.789818,5.574719 -3.713177,-2.530505 -0.884615,-1.640855 h -1.647228 l -2.625727,-1.048941 -0.234272,1.882477 -8.109739,0.50934 -3.445761,3.436061 H 18.532595 L 17.841413,29.98357 14.53181,29.417927 v 2.059884 L 9.6390713,35.245892 6.9931556,29.88507 3.474492,30.265162 l 0.9890898,2.31447 -1.5200152,1.611966 -0.546375,2.556177 5.4219091,0.854532 v 1.805715 l 1.5840189,0.650049 3.3704024,-2.703327 1.441344,2.969451 5.886134,1.181525 1.486674,-2.980467 h 7.435819 l 8.097883,-3.461167 -2.321811,4.316516 3.811383,4.251872 14.328051,2.172795 c 5.54795,1.607338 9.164783,2.62154 10.013689,2.828854 0.315862,-0.252654 0.656354,-0.555948 1.090583,-0.965003 0.890345,-0.838726 2.157983,-2.105803 3.799237,-3.798004 l 0.342578,-0.353213 0.48887,0.05591 c 3.561617,0.407301 5.612202,0.619795 5.929945,0.619795 -0.005,0 0.60425,-0.249131 1.278353,-0.577595 0.08215,-0.04003 0.166247,-0.08145 0.252079,-0.124141 0.346635,-0.172404 0.706335,-0.357794 1.057478,-0.543254 0.210554,-0.111207 0.370808,-0.197371 0.459654,-0.245796 l 0.455319,-0.248165 1.881289,0.926795 -0.434826,-2.007823 4.411586,-3.916581 h 1.548978 l -0.558019,-5.580182 2.19415,-1.487653 0.37665,-1.921384 -3.945361,-1.093567 3.247013,-3.305246 5.72927,0.613767 -0.476145,-1.38241 1.61455,-3.007508 -4.093832,-6.657597 1.564682,-2.957252 L 90.614648,7.8855417 87.451635,6.5495372 85.914114,8.1708733 H 80.980465 L 78.697328,5.8165011 77.129374,6.4616717 76.715377,6.2434779 C 75.052045,5.3668314 73.761295,4.7106003 72.846801,4.2763633 72.400315,4.0643548 72.04739,3.9071529 71.792744,3.8062302 c -0.17328,-0.021578 -0.218855,0.020341 -0.267808,0.071102 -0.123389,0.1279467 -0.226563,0.2620472 -0.275973,0.3355865 L 70.633577,5.1288345 69.560338,4.2432561 v 3.133299 h -3.049744 c -0.11563,0.2348935 -0.249458,0.5666926 -0.382265,0.9474033 -0.26265,0.7529241 -0.480252,1.60078 -0.480252,1.7659276 0,0.698266 -0.560918,1.19809 -1.244644,1.142502 -0.291984,-0.02374 -0.56775,-0.135543 -0.903352,-0.325995 -0.324814,-0.184329 -0.733485,-0.464317 -1.233148,-0.843356 L 61.029807,11.941233 56.12341,10.99 Z M 85.711167,22.405994 c -2.761423,0 -5,-2.238576 -5,-5 0,-2.761424 2.238577,-5 5,-5 2.761424,0 5,2.238576 5,5 0,2.761424 -2.238576,5 -5,5 z m 0,-2 c 1.656855,0 3,-1.343146 3,-3 0,-1.656854 -1.343145,-3 -3,-3 -1.656854,0 -3,1.343146 -3,3 0,1.656854 1.343146,3 3,3 z"
     id="path883"
     inkscape:connector-curvature="0"
     style="fill-rule:evenodd;fill:#ffffff;fill-opacity:1" />
  <text
     x="-0.027963152"
     y="70.896904"
     font-size="5px"
     font-weight="bold"
     id="text887"
     style="font-weight:bold;font-size:5px;font-family:'Helvetica Neue', Helvetica, Arial-Unicode, Arial, Sans-serif;fill:#000000">from the Noun Project</text>
</svg>
