<?xml version="1.0" encoding="UTF-8" standalone="no"?>
<svg
   xmlns:dc="http://purl.org/dc/elements/1.1/"
   xmlns:cc="http://creativecommons.org/ns#"
   xmlns:rdf="http://www.w3.org/1999/02/22-rdf-syntax-ns#"
   xmlns:svg="http://www.w3.org/2000/svg"
   xmlns="http://www.w3.org/2000/svg"
   xmlns:sodipodi="http://sodipodi.sourceforge.net/DTD/sodipodi-0.dtd"
   xmlns:inkscape="http://www.inkscape.org/namespaces/inkscape"
   viewBox="0 0 95.7948 55.710136"
   x="0px"
   y="0px"
   version="1.1"
   id="svg923"
   sodipodi:docname="czech_outline.svg"
   width="95.7948"
   height="55.710136"
   inkscape:version="0.92.3 (d244b95, 2018-08-02)">
  <metadata
     id="metadata929">
    <rdf:RDF>
      <cc:Work
         rdf:about="">
        <dc:format>image/svg+xml</dc:format>
        <dc:type
           rdf:resource="http://purl.org/dc/dcmitype/StillImage" />
        <dc:title></dc:title>
      </cc:Work>
    </rdf:RDF>
  </metadata>
  <defs
     id="defs927" />
  <sodipodi:namedview
     pagecolor="#ffffff"
     bordercolor="#666666"
     borderopacity="1"
     objecttolerance="10"
     gridtolerance="10"
     guidetolerance="10"
     inkscape:pageopacity="0"
     inkscape:pageshadow="2"
     inkscape:window-width="1535"
     inkscape:window-height="876"
     id="namedview925"
     showgrid="false"
     fit-margin-top="0"
     fit-margin-left="0"
     fit-margin-right="0"
     fit-margin-bottom="0"
     inkscape:zoom="3.0416667"
     inkscape:cx="47.816407"
     inkscape:cy="20.998234"
     inkscape:window-x="65"
     inkscape:window-y="24"
     inkscape:window-maximized="1"
     inkscape:current-layer="svg923" />
  <path
     d="m 93.761189,29.463027 c 0.450876,0 0.845991,0.301725 0.964711,0.736691 l 1.033235,3.785553 c 0.158283,0.579916 -0.22719,1.167421 -0.822181,1.2531 l -4.01081,0.577559 -2.459921,3.319487 c -0.115072,0.155282 -0.272676,0.27389 -0.453745,0.341475 l -1.991131,0.743203 -1.587585,5.148876 c -0.102507,0.33245 -0.370428,0.587734 -0.70744,0.674069 l -2.132617,0.546333 -1.830926,2.286568 c -0.135337,0.169017 -0.321876,0.289541 -0.531579,0.343458 l -4.920194,1.265029 c -0.217577,0.05594 -0.447652,0.03699 -0.653143,-0.0538 l -2.064694,-0.912221 -3.140235,5.105444 c -0.494406,0.803815 -1.724751,0.538388 -1.843788,-0.397767 l -0.23506,-1.848615 -2.520958,-1.191247 -1.843428,-0.564691 -1.375729,1.038107 c -0.210864,0.159114 -0.476119,0.228332 -0.737843,0.192538 l -4.461506,-0.61017 c -0.151639,-0.02074 -0.296494,-0.07601 -0.423408,-0.161548 l -2.714436,-1.82956 h -1.404433 c -0.157812,0 -0.313383,-0.03735 -0.453995,-0.108995 l -4.948596,-2.521464 -0.864592,0.969162 c -0.340784,0.382002 -0.915028,0.444956 -1.330482,0.145861 l -1.209814,-0.870975 -0.538015,4.126207 c -0.08611,0.660403 -0.781591,1.053684 -1.391899,0.787092 l -0.56042,-0.2448 -1.67757,3.049013 c -0.240015,0.436232 -0.764389,0.629439 -1.230063,0.453221 l -2.385231,-0.902606 -0.853166,1.167511 c -0.21776,0.297992 -0.581955,0.451813 -0.947399,0.40014 l -4.315344,-0.610169 c -0.430652,-0.06089 -0.772561,-0.393162 -0.845741,-0.821897 l -0.229802,-1.34633 -2.858473,-1.828205 c -0.104265,-0.06669 -0.195245,-0.152147 -0.268316,-0.252041 L 21.58604,47.564201 19.274033,47.307628 c -0.39645,-0.044 -0.728836,-0.319389 -0.845769,-0.700748 l -0.638681,-2.08296 -2.076669,-1.1516 c -0.12204,-0.06768 -0.228564,-0.160146 -0.312722,-0.271462 l -2.692074,-3.560831 h -1.248027 c -0.217904,0 -0.429845,-0.07117 -0.603581,-0.202698 L 8.7745928,37.761256 C 8.6503097,37.66717 8.5497427,37.545333 8.4809195,37.405469 L 5.7852364,31.927253 5.0196636,31.177458 C 4.8830029,31.043614 4.7875977,30.873382 4.7447638,30.686953 L 4.4405566,29.362933 C 4.383261,29.113562 4.4237339,28.851714 4.5536459,28.631279 l 1.053391,-1.7874 V 25.107013 L 2.0852526,22.50374 C 1.9665768,22.416016 1.8687886,22.303112 1.7989039,22.173129 L 0.11922903,19.04899 C -0.02650551,18.777928 -0.0393125,18.454861 0.08450768,18.173114 l 0.77774829,-1.76973 C 1.1669663,15.71003 2.1018846,15.593891 2.566977,16.191618 l 1.4631399,1.880396 1.6960213,-3.156576 C 5.900412,14.591085 6.2388306,14.388743 6.6070369,14.388743 H 8.8982534 L 10.042891,13.63078 c 0.229548,-0.152003 0.511608,-0.202645 0.779696,-0.139988 l 1.662332,0.388516 0.361802,-1.382283 c 0.115151,-0.439943 0.512647,-0.746789 0.967411,-0.746789 h 1.903627 L 17.84702,9.0931222 c 0.310345,-0.3872798 0.857767,-0.4883564 1.285949,-0.2374387 l 0.79854,0.4679503 V 8.6983293 c 0,-0.4646155 0.320005,-0.8680291 0.77243,-0.9737617 L 24.632876,6.8063671 30.999075,3.6169404 30.437192,3.22292 C 30.107668,2.9918416 29.948788,2.585734 30.034022,2.1923915 l 0.304207,-1.40386652 c 0.121505,-0.56072573 0.688882,-0.90445808 1.242138,-0.75252064 l 4.001037,1.09878176 c 0.360815,0.099089 0.636125,0.391319 0.713542,0.7573962 l 0.581156,2.7480723 0.946176,0.409881 0.471806,-0.8107489 c 0.179077,-0.3077258 0.508264,-0.4970293 0.864303,-0.4970293 h 1.151434 V 2.0990841 c 0,-0.5522848 0.447715,-1 1,-1 h 3.177538 c 0.409877,0 0.778254,0.2501197 0.929463,0.631085 l 1.639998,4.1318932 5.702009,0.9035426 c 0.191751,0.030385 0.370511,0.1159293 0.514465,0.2461939 l 2.500029,2.2622905 2.907785,-1.1955515 c 0.389376,-0.1600943 0.83732,-0.05917 1.12042,0.2524366 l 1.87634,2.0652806 c 0.28516,0.313875 0.34134,0.773479 0.140179,1.1468 l -0.906086,1.681541 -1.502651,1.950361 2.103539,1.478882 c 0.08157,0.05735 0.154108,0.126576 0.2152,0.205384 l 2.717869,3.505966 3.37734,-2.158823 -1.126721,-2.391408 c -0.06281,-0.133308 -0.09538,-0.278851 -0.09538,-0.426215 v -1.340705 c 0,-0.761974 0.818123,-1.243996 1.484635,-0.874716 l 6.964646,3.858749 4.271879,-1.189693 c 0.637344,-0.177496 1.268284,0.301742 1.268284,0.96334 v 2.3799 c 0,0.328755 -0.161588,0.636509 -0.43221,0.823173 l -1.308763,0.902728 2.503307,2.40219 1.660123,-1.156025 c 0.281906,-0.196304 0.644838,-0.234171 0.961194,-0.100286 l 6.786433,2.872087 c 0.274102,0.116003 0.482285,0.348077 0.567946,0.633123 l 1.172136,3.900419 z M 3.4543198,21.028653 7.2014596,23.798507 c 0.2550815,0.188554 0.4055773,0.486947 0.4055773,0.804152 v 2.51397 c 0,0.178572 -0.047817,0.353886 -0.1384831,0.507729 l -0.9895553,1.679083 0.1493767,0.650141 0.678368,0.664387 c 0.08081,0.07915 0.1476073,0.171426 0.1975477,0.272916 l 2.6664721,5.418852 1.625154,1.23029 h 1.4098 c 0.313405,0 0.608682,0.14693 0.797688,0.396929 l 2.864527,3.788936 2.244411,1.24462 c 0.226356,0.125524 0.395224,0.333924 0.4711,0.581383 l 0.564313,1.840416 2.096024,0.232604 c 0.278555,0.03091 0.531353,0.1773 0.696819,0.403506 l 2.5465,3.481272 3.073255,1.965575 c 0.237277,0.151756 0.399554,0.396539 0.446944,0.674179 l 0.181366,1.062561 2.998792,0.424015 0.948641,-1.298162 c 0.265396,-0.363179 0.740617,-0.504464 1.161317,-0.345265 l 2.285627,0.864914 1.699205,-3.088335 c 0.249227,-0.452974 0.802651,-0.641289 1.276434,-0.434333 l 0.759535,-4.389815 c 0.09786,-0.750487 0.961647,-1.124463 1.57587,-0.682268 l 1.838199,1.323366 0.778288,-0.87242 c 0.302441,-0.339021 0.795411,-0.431561 1.200212,-0.225302 l 5.421642,2.762495 h 1.469896 c 0.199151,0 0.393767,0.05946 0.558909,0.170771 l 2.77489,1.870306 3.822385,0.522762 1.453841,-1.097049 c 0.255859,-0.193068 0.588761,-0.251787 0.895234,-0.157906 l 2.400384,0.735302 3.216226,1.50831 c 0.199939,0.09448 0.359707,0.250798 0.459182,0.44124 l 2.163616,-3.517642 c 0.262015,-0.425989 0.798448,-0.592908 1.255907,-0.390794 l 2.545989,1.124865 4.261217,-1.095599 1.831229,-2.286947 c 0.135523,-0.16925 0.322385,-0.289867 0.532425,-0.343675 l 1.913787,-0.490273 1.567562,-5.083936 c 0.09141,-0.296473 0.315255,-0.533726 0.605914,-0.642217 l 2.174643,-0.8117 2.531844,-3.416542 c 0.158863,-0.214374 0.39681,-0.35637 0.660906,-0.3944 l 3.303304,-0.475677 -0.534165,-1.95707 h -1.240446 c -0.441433,0 -0.830645,-0.289442 -0.95769,-0.712199 l -1.250933,-4.162627 -5.845445,-2.473851 -1.879728,1.308947 c -0.391077,0.272325 -0.919987,0.230849 -1.263834,-0.09911 l -3.979053,-3.818325 c -0.456731,-0.438282 -0.396477,-1.18529 0.124595,-1.544703 l 1.885586,-1.300595 v -0.538296 l -3.398205,0.946379 c -0.252878,0.07043 -0.523306,0.03859 -0.75292,-0.08862 l -5.468292,-3.029697 1.036023,2.198905 c 0.214286,0.454812 0.05758,0.998011 -0.366042,1.26879 l -4.887515,3.12414 c -0.435771,0.278548 -1.012043,0.178855 -1.328914,-0.229898 l -3.185202,-4.108815 -2.840002,-1.99665 C 56.931866,15.878011 56.834522,15.22477 57.186009,14.77391 l 2.005215,-2.572128 0.530461,-0.984445 -0.928786,-1.022312 -2.842507,1.168713 c -0.356475,0.146567 -0.765451,0.07522 -1.05124,-0.183393 L 52.151958,8.6943938 46.181049,7.7482413 C 45.832204,7.6929632 45.538393,7.4577632 45.408093,7.1294795 L 43.808381,3.0990841 h -1.49856 v 1.6432733 c 0,0.5522848 -0.447716,1 -1,1 h -1.57637 l -0.629323,1.0814267 c -0.254833,0.4379036 -0.796899,0.616027 -1.261806,0.4146305 L 35.607113,6.2701281 C 35.309785,6.1413265 35.093295,5.8764446 35.026253,5.5594287 l -0.561978,-2.6573854 -1.66942,-0.4685582 0.724607,0.5081297 c 0.619835,0.4346587 0.550632,1.3737217 -0.126224,1.7128225 l -7.969989,3.9929158 c -0.04672,0.023405 -1.21063,0.3048112 -3.49174,0.8442195 v 1.5771224 c 0,0.772678 -0.838946,1.253432 -1.505592,0.862773 l -1.558566,-0.913331 -1.889115,2.357434 c -0.189786,0.236835 -0.47686,0.374665 -0.780357,0.374665 h -1.611802 l -0.412949,1.577696 c -0.137241,0.524338 -0.667216,0.843897 -1.194995,0.720546 l -2.190675,-0.511999 -1.0360138,0.686034 c -0.1637244,0.108416 -0.3557449,0.16623 -0.5521111,0.16623 H 7.2049435 L 5.0649734,20.371581 C 4.7228119,21.0084 3.8387916,21.082925 3.3948465,20.512376 L 2.6776842,19.584137 Z m 29.3620872,5.683249 c -2.761424,0 -5,-2.238576 -5,-5 0,-2.761424 2.238576,-5 5,-5 2.761424,0 5,2.238576 5,5 0,2.761424 -2.238576,5 -5,5 z m 0,-2 c 1.656854,0 3,-1.343146 3,-3 0,-1.656854 -1.343146,-3 -3,-3 -1.656854,0 -3,1.343146 -3,3 0,1.656854 1.343146,3 3,3 z"
     id="path917"
     style="fill:#ffffff;fill-opacity:1;fill-rule:evenodd"
     inkscape:connector-curvature="0" />
</svg>
