<?xml version="1.0" encoding="UTF-8" standalone="no"?>
<svg
   xmlns:dc="http://purl.org/dc/elements/1.1/"
   xmlns:cc="http://creativecommons.org/ns#"
   xmlns:rdf="http://www.w3.org/1999/02/22-rdf-syntax-ns#"
   xmlns:svg="http://www.w3.org/2000/svg"
   xmlns="http://www.w3.org/2000/svg"
   xmlns:sodipodi="http://sodipodi.sourceforge.net/DTD/sodipodi-0.dtd"
   xmlns:inkscape="http://www.inkscape.org/namespaces/inkscape"
   viewBox="0 0 95.825249 59.928406"
   version="1.1"
   x="0px"
   y="0px"
   id="svg96"
   sodipodi:docname="hungary_outline.svg"
   width="95.825249"
   height="59.928406"
   inkscape:version="0.92.3 (d244b95, 2018-08-02)">
  <metadata
     id="metadata102">
    <rdf:RDF>
      <cc:Work
         rdf:about="">
        <dc:format>image/svg+xml</dc:format>
        <dc:type
           rdf:resource="http://purl.org/dc/dcmitype/StillImage" />
        <dc:title>hungary, budapest, europe, city, capital, country, location</dc:title>
      </cc:Work>
    </rdf:RDF>
  </metadata>
  <defs
     id="defs100" />
  <sodipodi:namedview
     pagecolor="#ffffff"
     bordercolor="#666666"
     borderopacity="1"
     objecttolerance="10"
     gridtolerance="10"
     guidetolerance="10"
     inkscape:pageopacity="0"
     inkscape:pageshadow="2"
     inkscape:window-width="1535"
     inkscape:window-height="876"
     id="namedview98"
     showgrid="false"
     fit-margin-top="0"
     fit-margin-left="0"
     fit-margin-right="0"
     fit-margin-bottom="0"
     inkscape:zoom="9.56"
     inkscape:cx="47.934421"
     inkscape:cy="22.458383"
     inkscape:window-x="65"
     inkscape:window-y="24"
     inkscape:window-maximized="1"
     inkscape:current-layer="g90" />
  <title
     id="title84">hungary, budapest, europe, city, capital, country, location</title>
  <desc
     id="desc86">Created with Sketch.</desc>
  <g
     id="g90"
     style="fill:none;fill-rule:evenodd;stroke:none;stroke-width:1"
     transform="translate(-0.06557881,-0.02997914)">
    <path
       d="m 91.435494,9.8689057 2.734431,0.5398313 c 0.358652,0.07081 0.650083,0.331677 0.760025,0.680328 l 0.914556,2.900273 c 0.113731,0.360666 0.01427,0.754638 -0.257016,1.018108 l -3.542881,3.440747 c -0.160741,0.156106 -0.369252,0.253705 -0.592091,0.277143 l -4.43257,0.466207 -3.124238,6.385063 -5.089301,7.791158 -4.823488,11.10812 -0.109209,0.190819 -3.643893,4.998023 c -0.246875,0.338619 -0.678697,0.487393 -1.081753,0.372694 l -2.663988,-0.758102 -1.667079,2.442139 c -0.200937,0.294357 -0.543352,0.459523 -0.898805,0.433545 L 48.967542,51.06235 39.561408,56.495468 c -0.15206,0.08783 -0.324568,0.134074 -0.500171,0.134074 h -2.339236 l -2.922506,3.023792 c -0.221892,0.229583 -0.540077,0.339405 -0.856341,0.295569 L 23.037281,58.575879 C 22.886437,58.554971 22.742359,58.499887 22.61604,58.41483 L 17.512271,54.978177 6.8037894,44.801812 C 6.710811,44.713285 6.6357491,44.607682 6.5827031,44.490771 L 3.4671469,37.624223 H 1.067568 c -0.8789267,0 -1.33032391,-1.052445 -0.72452466,-1.689248 l 3.16412956,-3.32607 1.5897718,-2.311554 v -5.160256 c 0,-0.263671 0.1041359,-0.516672 0.289746,-0.703945 L 7.600625,22.199375 5.4783051,20.528262 C 5.0627594,20.201062 4.9738609,19.606863 5.2754494,19.172372 L 6.6718539,17.160606 C 6.9143902,16.81119 7.3514162,16.653431 7.7612143,16.767365 l 5.4322277,1.510296 -0.636958,-1.93231 c -0.09903,-0.30043 -0.05008,-0.630002 0.132006,-0.888674 l 1.921933,-2.730351 c 0.187296,-0.266078 0.492338,-0.424392 0.817725,-0.424392 h 2.642658 c 0.260025,0 0.509825,0.101284 0.696427,0.282372 l 4.812801,4.670612 h 9.409161 l 4.550448,-0.837463 -0.535457,-4.120138 c -0.07323,-0.563498 0.337204,-1.074699 0.903213,-1.124958 l 8.380254,-0.744135 2.841469,-3.1222171 c 0.320488,-0.3521539 0.84483,-0.4294903 1.25334,-0.1848581 l 3.279526,1.9639123 4.703396,-2.6834748 1.933929,-4.4369946 c 0.120706,-0.2769341 0.360134,-0.4844586 0.651405,-0.5646053 l 4.848514,-1.33412554 c 0.174871,-0.0481179 0.359536,-0.04777079 0.534225,0.0010042 L 70.817945,1.318979 74.557946,0.08070582 c 0.389172,-0.12885058 0.817568,-0.007125 1.08084,0.3071126 L 79.201221,4.639892 86.212478,3.5582145 c 0.358555,-0.055317 0.718947,0.087902 0.941728,0.3742418 l 2.723162,3.5067966 z m 2.316078,4.1335763 -0.550719,-1.746457 -2.570781,-0.507524 c -0.267086,-0.05273 -0.50113,-0.21207 -0.648094,-0.441237 L 88.246337,8.5931461 85.936588,5.6244395 78.949131,6.7024454 c -0.345788,0.053347 -0.69431,-0.077907 -0.919004,-0.3460997 L 74.541862,2.1928011 71.157058,3.3134725 c -0.188715,0.062481 -0.391769,0.0673 -0.583234,0.013841 L 66.062582,2.0677294 61.941871,3.2015919 60.066103,7.5051466 c -0.08615,0.1976526 -0.233875,0.3621674 -0.42115,0.4690152 L 54.14533,11.111916 c -0.313679,0.178967 -0.699485,0.174898 -1.009321,-0.01064 L 50.05727,9.2575989 47.504242,12.062875 c -0.168845,0.185528 -0.401253,0.300819 -0.651127,0.323007 l -7.731379,0.686517 0.523478,4.027969 c 0.06854,0.527354 -0.287655,1.016106 -0.81066,1.11236 l -5.573106,1.025673 -10.086872,0.01652 c -0.260025,0 -0.509825,-0.101283 -0.696427,-0.282372 l -4.812801,-4.670612 h -1.71821 l -1.333783,1.894809 1.06564,3.232779 c 0.25027,0.759232 -0.447393,1.490658 -1.217597,1.276522 l -6.551575,-1.821502 -0.454524,0.654821 2.2633058,1.782125 c 0.4692992,0.369526 0.5120952,1.065372 0.091614,1.48962 l -2.7132744,2.73759 v 5.059336 c 0,0.202351 -0.061388,0.399942 -0.1760543,0.566668 l -1.8106848,2.632766 -1.7111104,1.816755 h 0.7124435 c 0.3923884,0 0.7485163,0.229486 0.9106461,0.586813 l 3.3014969,7.276353 10.3756106,9.878928 4.841836,3.260279 9.17336,1.271492 2.86424,-2.963508 c 0.188421,-0.19495 0.447924,-0.305038 0.719047,-0.305038 h 2.495406 l 9.44034,-5.452876 c 0.173537,-0.100238 0.373188,-0.146021 0.573061,-0.131414 l 14.683185,1.073105 1.748851,-2.561929 c 0.242679,-0.355506 0.685621,-0.515832 1.099622,-0.398018 l 2.68639,0.764477 3.167833,-4.345052 4.813333,-11.084734 5.120815,-7.851463 3.340103,-6.826231 c 0.151344,-0.309305 0.451179,-0.518984 0.793637,-0.555003 l 4.638993,-0.487918 z M 42.390335,29.216867 c -2.761424,0 -5,-2.238576 -5,-5 0,-2.761423 2.238576,-5 5,-5 2.761423,0 5,2.238577 5,5 0,2.761424 -2.238577,5 -5,5 z m 0,-2 c 1.656854,0 3,-1.343145 3,-3 0,-1.656854 -1.343146,-3 -3,-3 -1.656855,0 -3,1.343146 -3,3 0,1.656855 1.343145,3 3,3 z"
       id="path88"
       style="fill:#ffffff;fill-opacity:1"
       inkscape:connector-curvature="0"
       inkscape:export-xdpi="96"
       inkscape:export-ydpi="96" />
  </g>
  <text
     x="-0.065578811"
     y="79.970024"
     font-size="5px"
     font-weight="bold"
     id="text94"
     style="font-weight:bold;font-size:5px;font-family:'Helvetica Neue', Helvetica, Arial-Unicode, Arial, Sans-serif;fill:#000000">from the Noun Project</text>
</svg>
