<?xml version="1.0" encoding="UTF-8" standalone="no"?>
<svg
   xmlns:dc="http://purl.org/dc/elements/1.1/"
   xmlns:cc="http://creativecommons.org/ns#"
   xmlns:rdf="http://www.w3.org/1999/02/22-rdf-syntax-ns#"
   xmlns:svg="http://www.w3.org/2000/svg"
   xmlns="http://www.w3.org/2000/svg"
   xmlns:sodipodi="http://sodipodi.sourceforge.net/DTD/sodipodi-0.dtd"
   xmlns:inkscape="http://www.inkscape.org/namespaces/inkscape"
   viewBox="0 0 79.160645 90.881561"
   x="0px"
   y="0px"
   version="1.1"
   id="svg904"
   sodipodi:docname="prague_icon.svg"
   width="79.160645"
   height="90.881561"
   inkscape:version="0.92.3 (d244b95, 2018-08-02)">
  <metadata
     id="metadata908">
    <rdf:RDF>
      <cc:Work
         rdf:about="">
        <dc:format>image/svg+xml</dc:format>
        <dc:type
           rdf:resource="http://purl.org/dc/dcmitype/StillImage" />
        <dc:title>Noun_Project_100Icon_10px_grid_ FINAL_EXPANDED</dc:title>
      </cc:Work>
    </rdf:RDF>
  </metadata>
  <sodipodi:namedview
     pagecolor="#ffffff"
     bordercolor="#666666"
     borderopacity="1"
     objecttolerance="10"
     gridtolerance="10"
     guidetolerance="10"
     inkscape:pageopacity="0"
     inkscape:pageshadow="2"
     inkscape:window-width="1535"
     inkscape:window-height="876"
     id="namedview906"
     showgrid="false"
     fit-margin-top="0"
     fit-margin-left="0"
     fit-margin-right="0"
     fit-margin-bottom="0"
     inkscape:zoom="5.736"
     inkscape:cx="39.653321"
     inkscape:cy="32.966401"
     inkscape:window-x="65"
     inkscape:window-y="24"
     inkscape:window-maximized="1"
     inkscape:current-layer="svg904" />
  <defs
     id="defs882">
    <style
       id="style880">.a{fill:#050001;}</style>
  </defs>
  <title
     id="title884">Noun_Project_100Icon_10px_grid_ FINAL_EXPANDED</title>
  <path
     class="a"
     d="m 37.860841,74.919937 a 3.32316,3.32316 0 0 0 -3.31885,3.32031 v 7.25291 h 6.64014 v -7.25291 a 3.3243,3.3243 0 0 0 -3.32129,-3.32031 z m -2.60986,3.32031 a 2.60632,2.60632 0 0 1 2.25586,-2.5755 v 9.11941 h -2.25586 z m 5.22216,6.54391 h -2.25733 v -9.11935 a 2.60712,2.60712 0 0 1 2.25733,2.57544 z"
     id="path886"
     inkscape:connector-curvature="0"
     style="fill:#050001" />
  <rect
     class="a"
     x="30.256842"
     y="26.253918"
     width="0.70898002"
     height="40.524899"
     id="rect888"
     style="fill:#050001" />
  <rect
     class="a"
     x="44.79443"
     y="26.253918"
     width="0.70898002"
     height="40.524899"
     id="rect890"
     style="fill:#050001" />
  <rect
     class="a"
     x="50.827148"
     y="72.606941"
     width="0.70898002"
     height="2.91113"
     id="rect892"
     style="fill:#050001" />
  <rect
     class="a"
     x="56.815918"
     y="72.606941"
     width="0.70898002"
     height="2.91113"
     id="rect894"
     style="fill:#050001" />
  <path
     class="a"
     d="m 79.160641,32.321787 a 3.95607,3.95607 0 0 0 -4.99072,-3.81543 5.16882,5.16882 0 0 0 -8.537,-0.95959 37.53639,37.53639 0 0 0 -24.74114,-12.10083 l 0.61993,-1.1925 h -1.41939 v -2.38135 a 2.05873,2.05873 0 0 0 -0.81543,-1.63464 V 3.7373167 L 38.280801,0.33252671 A 0.46436,0.46436 0 0 0 37.833051,6.7138395e-6 h -0.0029 A 0.46142,0.46142 0 0 0 37.385811,0.33300671 l -0.98149,3.28955999 -0.01361,6.6151103 a 2.05858,2.05858 0 0 0 -0.81549,1.6344 v 2.38135 h -1.4199 l 0.61731,1.18683 a 37.69339,37.69339 0 0 0 -26.8481897,14.5509 l -1.74622,-6.43255 a 0.72065,0.72065 0 0 0 -0.707,-0.5498 h -4.9e-4 a 0.72041,0.72041 0 0 0 -0.70752,0.54443 l -4.53371998,16.70263 a 7.41573,7.41573 0 0 0 -0.2294900030799,1.835 v 11.96286 H 0.04779132 A 37.776,37.776 0 1 0 71.631591,36.275407 h 3.5769 a 3.95728,3.95728 0 0 0 3.95215,-3.95362 z m -9.5874,-5.89795 a 4.48129,4.48129 0 0 1 4.08691,2.65674 l 0.13379,0.30029 0.30957,-0.11133 a 3.24506,3.24506 0 1 1 1.105,6.29688 h -11.51759 a 2.82837,2.82837 0 1 1 1.05176,-5.45215 l 0.38281,0.15332 0.09473,-0.40088 a 4.45315,4.45315 0 0 1 4.35302,-3.44287 z m -32.48437,-22.6176803 0.74561,-2.498 0.7334,2.4292 v 6.14825 a 2.03749,2.03749 0 0 0 -0.542,-0.08136 h -0.38379 a 2.03909,2.03909 0 0 0 -0.54388,0.08191 z m -0.80469,8.0659203 a 1.35994,1.35994 0 0 1 1.35791,-1.35892 h 0.38379 a 1.35952,1.35952 0 0 1 1.35744,1.35893 v 2.38135 h -3.09914 z m -0.709,3.09033 h 4.76855 l -1.13806,2.18945 h -2.74335 l -1.139,-2.18945 z m 7.82714,8.71143 h 3.4917 l 0.5899,35.91956 c -0.0077,0.1322 -0.02008,0.26324 -0.02008,0.39734 h 0.02661 l 0.15405,9.38135 h -4.9917 z m 1.74707,-2.85156 a 1.0765,1.0765 0 0 1 1.10205,1.07373 v 1.06885 h -2.20554 v -1.041 a 1.10383,1.10383 0 0 1 1.10351,-1.10158 z m 2.87193,28.3252 h 12.32585 v 7.87168 a 6.76462,6.76462 0 0 0 -12.19635,0.0082 z m 3.25354,-3.37891 h 5.90625 v 2.66992 h -5.90621 z m 0.24634,-0.709 2.70728,-4.8999 2.70642,4.8999 z m 12.91382,8.33789 h 10.4362 a 37.10182,37.10182 0 0 1 -0.59271,6.29785 h -9.84345 z m 0,7.00684 h 9.71649 a 36.77234,36.77234 0 0 1 -3.04669,8.96777 h -0.37927 v -3.5498 c 0,-0.95459 -0.79346,-3.21533 -2.04443,-3.21533 -1.25049,0 -2.04346,2.26074 -2.04346,3.21533 v 3.5498 h -2.2026 z m 5.58154,8.96777 h -2.66988 v -3.5498 c 0,-0.84961 0.72021,-2.50635 1.33447,-2.50635 0.61475,0 1.33545,1.65674 1.33545,2.50635 z m -6.29053,0 h -2.66988 v -23.6035 h 2.66992 z m 0,10.19342 q -1.27671,1.25053 -2.66988,2.37557 v -11.86 h 2.66992 z m -15.72115,-9.48442 h 5.86035 v 8.06689 h -6.92091 v -8.06689 z m 12.34229,8.06689 h -5.77295 v -8.06689 h 5.77295 z m -8.811,-16.667 h 5.38375 v 3.57373 h -5.38379 z m 0.06134,-0.709 c 0.27557,-1.66168 1.44122,-3.84863 2.631,-3.84863 1.18939,0 2.35461,2.187 2.63007,3.84863 z m -0.06134,4.9917 h 5.38375 v 3.6084 h -5.38379 z m -5.30085,4.3428 v 19.08264 q -1.07547,0.25113 -2.17334,0.43976 v -19.5224 z m 0.709,8.75049 h 13.40285 v 3.6416 a 36.95209,36.95209 0 0 1 -13.40285,6.52649 z m 10.68457,-9.48486 v -7.92041 c 0,-1.793 -1.436,-5.2373 -3.40039,-5.2373 -1.96484,0 -3.40137,3.44434 -3.40137,5.2373 v 7.92041 h -2.47355 l -0.16064,-9.77936 a 6.074,6.074 0 0 1 12.13617,0.398 h 0.01807 v 9.38135 z m -15.4035,-17.167 h -2.32007 v -18.45459 a 2.071535,2.071535 0 1 0 -4.14307,0 v 18.45459 h -2.22819 l -0.46774,-28.53125 h 9.6271 z m -0.28162,17.167 h -8.12822 l -0.2002,-12.208 h 8.52869 z m -10.247,20.2832 c -0.73212,-0.12195 -1.45581,-0.26764 -2.17285,-0.43195 v -19.11688 h 2.17285 z m -18.13134,-16.86813 v 0.01172 h -0.166 l 2.01758,-3.06348 2.01709,3.06348 h -0.167 v -0.01172 z m 4.17188,-0.81665 -2.32031,-3.52417 -2.32129,3.52411 v -8.2512 a 2.3208,2.3208 0 1 1 4.6416,0 z m -1.1792,1.53735 v 9.93945 c -0.7821,-0.54913 -1.54736,-1.12054 -2.28369,-1.72693 v -8.21255 z m 0.709,0 h 3.80469 v 12.65182 a 37.10346,37.10346 0 0 1 -3.80469,-2.22009 z m 3.80469,-0.7207 v 0.01172 h -0.16553 l 2.01758,-3.06348 2.01611,3.06348 h -0.1665 v -0.01172 z m 4.17139,-0.81714 -2.31934,-3.52368 -2.32129,3.52411 v -8.2512 a 2.320315,2.320315 0 1 1 4.64063,0 z m -3.4624,1.53784 h 2.28369 v 14.00845 c -0.77289,-0.30963 -1.53735,-0.6358 -2.28369,-0.99506 z m 2.99268,0 h 4.0415 v 15.55142 a 36.72982,36.72982 0 0 1 -4.0415,-1.26294 z m 4.0415,-0.709 h -2.86282 v -9.07961 a 3.0293,3.0293 0 1 0 -6.05859,0 v 9.07959 h -1.44724 v -9.07959 a 3.02979,3.02979 0 1 0 -6.05957,0 v 9.07959 h -1.4473 v -13.63476 h 16.63355 l -0.17944,10.917 h 1.42139 z M 6.8911113,58.455087 h -2.76367 v -18.65136 c 0,-1.03223 0.81787,-3.4668 1.38232,-3.4668 0.564,0 1.38135,2.43457 1.38135,3.4668 z m 0.709,0.709 h 2.6303697 v 5.22314 H 2.4972513 a 36.763,36.763 0 0 1 -1.25958,-5.22314 h 6.36243 z m 19.9845597,-0.709 h -2.88789 v -2.43554 h -0.709 v 2.43555 h -2.75046 v -2.43555 h -0.709 v 2.43555 h -2.75049 v -2.43555 h -0.709 v 2.43555 h -2.75051 v -2.43555 h -0.709 v 2.43555 h -2.66987 v -5.563 h 16.73664 z m -13.9753,-6.27193 h -2.60005 v -6.57035 a 1.67456,1.67456 0 0 1 0.04639,-0.38867 l 1.22754,-5.2085 1.27588,5.20361 a 1.67159,1.67159 0 0 1 0.05029,0.40186 z m -3.3789,12.913 v 12.74553 A 37.09479,37.09479 0 0 1 2.7376113,65.096157 Z m 17.88379,4.27588 0.27081,-16.48 h 0.0046 v -0.278 l 0.47559,-28.94025 h 3.49218 l 0.749,45.69824 z m 2.49658,-48.5498 a 1.10289,1.10289 0 0 1 1.10205,1.10156 v 1.041 h -2.20508 v -1.041 a 1.10341,1.10341 0 0 1 1.10303,-1.10152 z m 11.5448,35.63281 h -8.55188 l -0.058,-3.541 h 8.668 z m -5.68445,-7.89746 v -14.80709 a 1.36255,1.36255 0 1 1 2.7251,0 v 18.45459 h -2.7251 z m -2.63721,-25.59273 1.14453,-2.14258 h 5.70947 l 1.145,2.14258 z m 2.81055,-2.85156 v -2.22119 h 2.41357 v 2.22119 z m -1.51959,-3.99554 0.81061,1.55841 v 2.43713 h -1.38184 l -1.52356,2.85156 h -0.60828 v -1.041 a 1.81287,1.81287 0 0 0 -1.45655,-1.7747 v -1.71311 h -0.709 v 1.71311 a 1.8132,1.8132 0 0 0 -1.45752,1.77472 v 1.041 h -0.63086 l -0.4802,29.21828 h -13.36942 v -6.562 a 2.375,2.375 0 0 0 -0.0708,-0.57178 l -1.49707,-6.105 a 0.48571,0.48571 0 0 0 -0.94434,0.0044 l -0.8667,3.67743 v -0.53535 a 7.47639,7.47639 0 0 0 -0.23,-1.84033 l -2.5527297,-9.4035 A 36.99692,36.99692 0 0 1 35.124941,16.117747 Z m -34.20989968,24.3183 4.57714998,-16.69727 1.88713,6.95178 -0.01361,0.01746 0.02295,0.01691 2.6347697,9.70575 a 6.74149,6.74149 0 0 1 0.207,1.66016 v 16.36424 H 7.6001013 v -18.65136 c 0,-0.79736 -0.69678,-4.17578 -2.09033,-4.17578 -1.39453,0 -2.09131,3.37842 -2.09131,4.17578 v 18.65136 h -2.2934 a 37.19841,37.19841 0 0 1 -0.39263998,-5.36133 h -0.02344 v -11.00292 a 6.70655,6.70655 0 0 1 0.20606,-1.65479 z M 10.939451,78.600417 v -5.09259 h 2.626 v 7.60113 q -1.37368,-1.19018 -2.626,-2.50854 z m 21.46631,11.16949 v -19.68884 h 10.94727 v 19.67 a 37.0166,37.0166 0 0 1 -10.94727,0.0188 z m 32.0293,-10.92108 v -8.76776 h 6.30626 a 37.24884,37.24884 0 0 1 -6.30626,8.76776 z m 10.43164,-26.16034 h -10.43164 v -7.6289 h -4.08789 v 3.37891 h -2.457 v -3.02442 l -3.66162,-6.7207 -3.6626,6.62939 v 3.11572 h -2.55618 l -0.41845,-25.47363 h -0.63086 v -1.06885 a 1.76683,1.76683 0 0 0 -1.457,-1.7486 v -1.71136 h -0.709 v 1.71311 a 1.8131,1.8131 0 0 0 -1.45752,1.77466 v 1.041 h -0.7002 l -1.52393,-2.85156 h -1.3457 v -2.50387 l 0.77148,-1.48407 a 36.84449,36.84449 0 0 1 24.66773,12.00159 5.15632,5.15632 0 0 0 -0.57355,1.20221 3.50064,3.50064 0 0 0 -0.94189,-0.12842 3.537355,3.537355 0 1 0 0,7.07471 h 7.155 a 37.16546,37.16546 0 0 1 4.02082,16.41308 z"
     id="path896"
     inkscape:connector-curvature="0"
     style="fill:#050001" />
  <path
     class="a"
     d="m 16.882321,31.739267 h 6.21289 a 2.07227,2.07227 0 1 0 0,-4.14453 2.02444,2.02444 0 0 0 -0.40039,0.03955 2.96047,2.96047 0 0 0 -5.33594,-0.438 2.338,2.338 0 0 0 -0.47656,-0.04883 2.2959,2.2959 0 1 0 0,4.5918 z m 0,-3.88281 a 1.57753,1.57753 0 0 1 0.53906,0.09277 l 0.31055,0.11279 0.13428,-0.30176 a 2.25093,2.25093 0 0 1 4.24707,0.39551 l 0.0957,0.40381 0.38379,-0.15723 a 1.31823,1.31823 0 0 1 0.50244,-0.09863 1.36328,1.36328 0 1 1 0,2.72656 h -6.21289 a 1.586915,1.586915 0 1 1 0,-3.17383 z"
     id="path898"
     inkscape:connector-curvature="0"
     style="fill:#050001" />
</svg>
