<?xml version="1.0" encoding="UTF-8" standalone="no"?>
<svg
   xmlns:dc="http://purl.org/dc/elements/1.1/"
   xmlns:cc="http://creativecommons.org/ns#"
   xmlns:rdf="http://www.w3.org/1999/02/22-rdf-syntax-ns#"
   xmlns:svg="http://www.w3.org/2000/svg"
   xmlns="http://www.w3.org/2000/svg"
   xmlns:sodipodi="http://sodipodi.sourceforge.net/DTD/sodipodi-0.dtd"
   xmlns:inkscape="http://www.inkscape.org/namespaces/inkscape"
   viewBox="0 0 75.563438 89.916496"
   x="0px"
   y="0px"
   version="1.1"
   id="svg921"
   sodipodi:docname="vienna_icon.svg"
   width="75.563438"
   height="89.916496"
   inkscape:version="0.92.3 (d244b95, 2018-08-02)">
  <metadata
     id="metadata925">
    <rdf:RDF>
      <cc:Work
         rdf:about="">
        <dc:format>image/svg+xml</dc:format>
        <dc:type
           rdf:resource="http://purl.org/dc/dcmitype/StillImage" />
        <dc:title>Noun_Project_100Icon_10px_grid_ FINAL_EXPANDED</dc:title>
      </cc:Work>
    </rdf:RDF>
  </metadata>
  <sodipodi:namedview
     pagecolor="#ffffff"
     bordercolor="#666666"
     borderopacity="1"
     objecttolerance="10"
     gridtolerance="10"
     guidetolerance="10"
     inkscape:pageopacity="0"
     inkscape:pageshadow="2"
     inkscape:window-width="1535"
     inkscape:window-height="876"
     id="namedview923"
     showgrid="false"
     fit-margin-top="0"
     fit-margin-left="0"
     fit-margin-right="0"
     fit-margin-bottom="0"
     inkscape:zoom="5.736"
     inkscape:cx="37.782224"
     inkscape:cy="32.967277"
     inkscape:window-x="65"
     inkscape:window-y="24"
     inkscape:window-maximized="1"
     inkscape:current-layer="svg921" />
  <defs
     id="defs907">
    <style
       id="style905">.a{fill:#050001;}</style>
  </defs>
  <title
     id="title909">Noun_Project_100Icon_10px_grid_ FINAL_EXPANDED</title>
  <path
     class="a"
     d="m 54.671874,42.22315 h 5.20508 a 1.981,1.981 0 1 0 -0.37109,-3.92676 2.53665,2.53665 0 0 0 -4.53418,0.3667 1.79275,1.79275 0 1 0 -0.2998,3.56006 z m 0,-2.87646 a 1.09758,1.09758 0 0 1 0.40527,0.07861 l 0.38184,0.1499 0.09277,-0.39893 a 1.82736,1.82736 0 0 1 3.44824,-0.31836 l 0.13477,0.30225 0.31152,-0.11377 a 1.24278,1.24278 0 0 1 0.43066,-0.07617 1.272,1.272 0 0 1 0,2.54395 h -5.20507 a 1.08374,1.08374 0 1 1 0,-2.16748 z"
     id="path911"
     inkscape:connector-curvature="0"
     style="fill:#050001" />
  <path
     class="a"
     d="m 37.896484,42.04004 a 2.89478,2.89478 0 1 0 -2.89258,-2.897 2.8994,2.8994 0 0 0 2.89258,2.897 z m 0,-5.08057 a 2.18579,2.18579 0 1 1 -2.18359,2.18359 2.187,2.187 0 0 1 2.18359,-2.18359 z"
     id="path913"
     inkscape:connector-curvature="0"
     style="fill:#050001" />
  <path
     class="a"
     d="m 70.572224,70.8656 a 37.74889,37.74889 0 0 0 -27.40625,-56.127 v -1.8172 h -1.92675 V 7.22217 h -1.1318 V 5.44483 a 2.17663,2.17663 0 0 0 -1.75781,-2.131 V 0 h -0.709 v 3.30084 a 2.17,2.17 0 0 0 -1.88379,2.144 v 1.77734 h -1.2041 v 5.69922 h -1.92773 v 1.78472 a 37.399,37.399 0 0 0 -20.984,10.15588 4.22479,4.22479 0 0 0 -6.1624795,1.44659 3.23677,3.23677 0 1 0 -0.7959,6.37451 h 0.72223 a 37.72584,37.72584 0 0 0 9.9476895,49.833 v 0.13574 h 0.1908 a 37.71768,37.71768 0 0 0 54.94739,-11.64451 h 0.0815 z M 3.6931145,66.69678 h 2.09888 v 3.60156 h -0.30977 a 36.948,36.948 0 0 1 -1.78911,-3.60156 z m 2.79419,-22.479 h 2.67383 l 0.66718,1.12988 h -4.01075 z m 1.33692,-3.50684 0.9834,2.79785 h -1.96876 z m -2.27441,5.3457 H 10.094714 V 50.2583 H 5.5498145 Z m 5.2539095,4.91064 h 0.05762 v 5.70313 H 8.1798045 l 8.5e-4,-2.78418 h -0.709 l -8.5e-4,2.78418 h -2.68077 v -5.70312 h 6.0136695 z m 0.7666,6.41211 h 1.18164 v 1.27 l -0.90332,0.92822 H 3.7304645 l -0.90137,-0.92773 V 57.3794 h 8.7412095 z m 28.96,-43.749 v 2.54932 h -5.26861 v -2.54934 z m 1.92676,3.2583 v 13.79832 h -2.60552 v -9.959 l -0.0029,-0.35449 h -0.03223 a 1.95668,1.95668 0 0 0 -3.88086,0.35449 v 9.959 h -2.60159 V 16.88867 Z m 24.22168,27.3291 h 2.67383 l 0.66974,1.12988 h -4.0108 z m 1.33691,-3.50684 0.98535,2.79785 h -1.9688 z m -2.27051,5.3457 h 4.54492 v 4.20166 h -4.54497 z m 5.25391,4.91064 h 0.05078 v 5.70313 h -2.68084 l -8.5e-4,-2.7842 h -0.709 l 8.5e-4,2.78418 h -2.6815 v -5.70311 h 6.02051 z m 0.75977,6.41211 h 1.252 v 1.27051 l -0.90137,0.92773 h -8.11825 l -0.90332,-0.92822 v -1.27 h 8.6709 z m -2.41992,5.74658 v 2.86182 h -2.5791 v -2.89014 h -0.709 v 2.89014 h -1.94145 v -5.70118 h 7.72656 v 5.70117 h -1.78808 v -2.86181 z m -5.93848,3.95117 h -15.66314 v -0.08887 l -0.0029,6e-5 V 64.0127 h -0.6709 v -2.74463 h 16.33691 z m -7.47852,3.22119 v -2.51221 h 3.38477 v 2.51221 z m 3.38477,11.64453 h -3.38482 v -2.42529 h 3.38477 z m -4.09375,0 h -3.38482 v -2.42529 h 3.38477 z m -4.09375,0 h -3.38189 v -2.42529 h 3.38184 z M 19.897454,67.78613 v 2.51221 h -3.374 v -2.51221 z m 0.709,0 h 3.374 v 2.51221 h -3.374 z m 4.083,0 h 3.41309 v 2.51221 h -3.41309 z m 4.0918,-20.9668 v -2.42529 h 3.07813 v 2.42529 z m 1.34961,-15.42334 h 15.53124 v 2.50146 h -15.53125 z m 6.51367,-0.709 v -9.959 a 1.24756,1.24756 0 0 1 2.49512,0 l 0.0029,9.959 z m 6.57617,3.91943 v 9.07861 h -10.65235 v -9.07858 z m -10.65235,12.21292 v -2.4253 h 3.07715 v 2.42529 z m 3.78613,-2.42529 h 3.0791 v 2.42529 h -3.0791 z m 3.78809,0 h 3.07813 v 2.42529 h -3.07813 z m 3.78711,0 h 3.07715 v 2.42529 h -3.07715 z m -0.709,3.13428 V 64.0127 h -2.48924 V 53.53422 a 2.86963,2.86963 0 0 0 -5.73926,0 V 64.0127 h -2.42383 V 47.52832 Z m -3.14846,26.25878 v 5.02148 h -4.30758 v -5.02148 h -0.709 v 5.02148 h -2.4873 v -7.80126 h 10.70314 v 7.80127 h -2.49026 v -5.02149 z m -0.0498,-9.77441 h -4.32125 V 53.53422 a 2.160645,2.160645 0 0 1 4.32129,0 z m 3.19824,0.709 v 2.34277 h -10.65231 v -2.34279 z m -14.40914,3.0659 h 3.04785 v 2.51074 h -3.04785 z m 3.75684,-0.01416 h 10.70312 v 2.5249 h -10.70313 z m 11.41211,3.23389 h 3.04785 v 7.80127 h -3.04786 z m 0,-0.709 v -2.51854 l 0.28918,-0.0063 h 2.75867 v 2.5249 z m 3.04492,-5.57666 v 2.28223 l -2.75409,0.06055 h -0.34161 v -2.34277 z m -15.166,2.34277 h -3.06057 v -2.34276 h 3.06055 z m -3.04787,3.94289 h 3.04785 v 7.80127 h -3.04785 z m 2.83789,8.51025 h 0.21 v 2.42529 h -3.04789 v -2.42529 z m 0.91895,0 h 10.70312 v 2.42529 h -10.70313 z m 11.41211,0 h 3.04785 v 2.42529 h -3.04786 z m 3.75684,-11.73145 h 3.38184 v 2.51221 h -3.38185 z m 4.09082,0 h 3.38477 v 2.51221 h -3.38478 z m -5.47363,-3.77344 h -2.4248 V 47.52832 h 2.4248 z m -2.4248,-20.32764 v -9.0786 h 1.7774 l 1.24731,9.07861 z m -0.76367,-12.998 v -8.63183 h 1.60742 l 0.84283,8.63184 z m -10.541,0 h -2.457 l 0.86619,-8.63183 h 1.59082 z m -2.53931,3.91943 h 1.77368 v 9.07861 h -3.02554 z m 1.77365,12.92184 V 64.0127 h -2.4873 V 47.52832 Z m -3.19629,16.48438 h -0.57324 v 3.06445 h -15.65039 v -5.80908 h 16.22363 z m -16.93262,1.9751 H 9.7890645 v -2.89014 h -0.709 v 2.89014 h -2.5791 v -2.86182 h -0.709 v 2.86182 h -1.78806 v -5.70118 h 7.7265595 z m -5.2294895,0.709 h 2.5791 v 3.60156 h -2.5791 z m 3.28809,0 h 1.9414095 v 3.60156 H 9.7890645 Z m 2.6503895,1.08936 h 3.375 v 2.51221 h -3.375 z m 15.66309,3.22119 v 7.80127 h -3.41309 v -4.99026 h -0.709 v 4.99023 h -3.374 v -5.04248 h -0.709 v 5.04248 h -3.374 v -4.99023 h -0.709 v 4.99023 h -3.375 v -7.80126 z m -12.28809,8.51023 v 2.42529 h -0.045 a 37.34361,37.34361 0 0 1 -2.95129,-2.42529 z m 0.709,0 h 3.374 v 2.42529 h -3.374 z m 4.083,0 h 3.374 v 2.42529 h -3.374 z m 4.083,0 h 3.41309 v 2.42529 h -3.41309 z m 4.12207,3.13428 h 3.04785 v 6.07684 q -1.54605,-0.24939 -3.04785,-0.62463 z m 3.75684,0 h 10.70312 v 6.14655 c -0.79877,0.11908 -1.60791,0.205 -2.4223,0.272 a 6.17868,6.17868 0 0 0 -2.72906,-4.75549 l -0.18164,-0.10889 -0.18164,0.10889 a 6.17943,6.17943 0 0 0 -2.73022,4.77942 c -0.827,-0.0611 -1.64709,-0.14587 -2.45825,-0.26062 z m 11.41211,0 h 3.04785 v 5.38812 c -0.99933,0.25751 -2.018,0.465 -3.04785,0.63916 z m 3.75684,0 h 11.0603 a 36.92539,36.92539 0 0 1 -11.0603,5.18677 z m 12.27831,-3.13428 h 2.7296 q -1.3092,1.19449 -2.72955,2.26245 z m 3.38477,-0.709 h -3.38477 v -5.04247 h -0.709 v 5.04248 h -3.38475 v -5.04248 h -0.709 v 5.04248 h -3.38475 v -4.99023 h -0.709 v 4.99023 h -3.38182 v -7.80126 h 15.66308 z m -3.38477,-8.51024 v -2.51221 h 3.38477 v 2.51221 z m 4.09375,-3.60156 h 1.94141 v 3.60156 h -1.94141 z m 2.65039,0 h 2.5791 v 3.60156 h -2.5791 z m 3.28809,3.60156 v -3.60156 h 1.82251 a 36.948,36.948 0 0 1 -1.78914,3.60156 z m 4.80664,-18.16455 a 36.89233,36.89233 0 0 1 -2.30957,12.87665 v -4.86273 l 1.17478,-1.21069 v -2.2666 h -1.96092 V 50.2583 h -0.75976 v -4.65332 l -1.24219,-2.09619 h -0.0038 l -1.36041,-3.85883 v -3.1734 h -0.709 v 3.03857 l -1.4024,3.99366 h -0.0068 l -1.23828,2.09668 v 4.65283 h -0.7666 v 6.41211 h -1.89067 v 2.26709 l 1.02148,1.04919 v 0.57239 H 47.063474 V 47.52832 h 0.65234 v -3.84326 h -0.045 l -1.29972,-9.46014 v -3.5379 h -0.043 l -0.91208,-9.3408 h -2.25 v -5.88968 a 37.16977,37.16977 0 0 1 31.68848,36.67725 z m -32.39747,-35.9541 h -1.2178 v -2.54932 h 1.2178 z M 36.465814,5.44483 a 1.46631,1.46631 0 0 1 2.93262,0 v 1.77734 h -2.93262 z m -1.2041,2.48633 h 5.26851 v 4.99023 h -2.24507 v -2.72363 h -0.709 v 2.72363 h -2.31444 z m -0.709,5.69922 v 2.54932 h -1.21873 V 13.63037 Z M 2.1562245,29.44629 a 2.53063,2.53063 0 0 1 3.38867,-2.37744 l 0.30957,0.11035 0.13379,-0.2998 a 3.51115,3.51115 0 0 1 6.6249995,0.61523 l 0.09375,0.40039 0.38184,-0.15234 a 2.19477,2.19477 0 1 1 0.81838,4.23144 H 4.6826145 a 2.53014,2.53014 0 0 1 -2.52639,-2.52783 z m 4.06842,3.23682 h 7.6825795 a 2.90332,2.90332 0 1 0 -0.708,-5.71924 4.19817,4.19817 0 0 0 -1.01306,-1.64191 36.69221,36.69221 0 0 1 20.43884,-9.89941 v 5.92367 h -2.23145 l -0.93768,9.34082 h -0.034 v 3.53784 l -1.30444,9.46021 h -0.04521 v 3.84323 h 0.59082 v 13.03076 h -16.22359 v -0.57239 l 1.02148,-1.04919 v -2.26709 h -1.89062 V 50.2583 h -0.7666 V 45.60547 L 9.5654245,43.50879 h -0.0068 l -1.4024,-3.99365 v -3.03858 h -0.709 v 3.1734 l -1.36041,3.85883 h -0.0038 l -1.24219,2.09619 v 4.65332 h -0.75977 v 6.41211 h -1.96089 v 2.2666 l 1.1748,1.21069 v 5.56238 a 37.00436,37.00436 0 0 1 2.92975,-33.027 z m -0.33429,38.32422 h 5.8400895 v 7.47308 A 37.31356,37.31356 0 0 1 5.8903745,71.00733 Z M 28.102534,82.65186 v 5.26556 a 36.91884,36.91884 0 0 1 -11.33691,-5.26556 z m 7.64142,6.49719 a 5.51022,5.51022 0 0 1 2.19452,-4.10266 5.5114,5.5114 0 0 1 2.19263,4.07883 c -0.77789,0.049 -1.55988,0.08228 -2.34985,0.08228 -0.68378,2e-5 -1.36249,-0.02171 -2.0373,-0.05845 z m 28.36542,-10.94421 v -7.19751 h 5.56372 a 37.31222,37.31222 0 0 1 -5.56372,7.19751 z"
     id="path915"
     inkscape:connector-curvature="0"
     style="fill:#050001" />
</svg>
