<?xml version="1.0" encoding="UTF-8" standalone="no"?>
<svg
   inkscape:version="1.3.2 (091e20e, 2023-11-25, custom)"
   height="341.54691"
   width="1440"
   sodipodi:docname="whale_wave.svg"
   version="1.1"
   viewBox="0 0 1440 341.5469"
   id="Layer_2"
   xmlns:inkscape="http://www.inkscape.org/namespaces/inkscape"
   xmlns:sodipodi="http://sodipodi.sourceforge.net/DTD/sodipodi-0.dtd"
   xmlns="http://www.w3.org/2000/svg"
   xmlns:svg="http://www.w3.org/2000/svg"
   xmlns:rdf="http://www.w3.org/1999/02/22-rdf-syntax-ns#"
   xmlns:cc="http://creativecommons.org/ns#"
   xmlns:dc="http://purl.org/dc/elements/1.1/">
  <metadata
     id="metadata88">
    <rdf:RDF>
      <cc:Work
         rdf:about="">
        <dc:format>image/svg+xml</dc:format>
        <dc:type
           rdf:resource="http://purl.org/dc/dcmitype/StillImage" />
        <dc:title />
      </cc:Work>
    </rdf:RDF>
  </metadata>
  <sodipodi:namedview
     inkscape:guide-bbox="true"
     showguides="true"
     inkscape:current-layer="g1041"
     inkscape:window-maximized="1"
     inkscape:window-y="-2"
     inkscape:window-x="1672"
     inkscape:cy="239.70224"
     inkscape:cx="759.83606"
     inkscape:zoom="0.74884574"
     fit-margin-bottom="0"
     fit-margin-right="0"
     fit-margin-left="0"
     fit-margin-top="0"
     showgrid="false"
     id="namedview86"
     inkscape:window-height="987"
     inkscape:window-width="1680"
     inkscape:pageshadow="2"
     inkscape:pageopacity="0"
     guidetolerance="10"
     gridtolerance="10"
     objecttolerance="10"
     borderopacity="1"
     bordercolor="#666666"
     pagecolor="#000000"
     inkscape:document-rotation="0"
     inkscape:showpageshadow="2"
     inkscape:pagecheckerboard="0"
     inkscape:deskcolor="#d1d1d1" />
  <defs
     id="defs52">
    <style
       id="style50">.cls-1{fill:none;}.cls-2{fill:#003087;}.cls-3{fill:#0085ca;}.cls-4{fill:#a6d4ec;}.cls-5{fill:#54addb;}</style>
  </defs>
  <g
     transform="translate(0,-195.48032)"
     id="g954">
    <g
       id="g1023">
      <g
         style="fill:#ffffff;fill-opacity:1"
         id="g1032">
        <g
           id="g1041">
          <path
             fill="#ffffff"
             fill-opacity="1"
             d="m 0,345.0272 47.999994,-10.69999 c 48,-10.3 144.000006,-32.3 240.000006,-37.3 96,-5 192,5 288,32 96,26.99999 192,68.99999 288,69.29999 96,-0.3 192,-42.3 288,-58.59999 96,-15.7 192,-5.7 240,0 l 48,5.29999 v 192 h -48 c -48,0 -144,0 -240,0 -96,0 -192,0 -288,0 -96,0 -192,0 -288,0 -96,0 -192,0 -288,0 -96,0 -192.000006,0 -240.000006,0 H 0 Z"
             id="path117-6"
             style="fill:#0085ca;fill-opacity:1" />
          <path
             fill="#ffffff"
             fill-opacity="1"
             d="m 0,444.7212 48,-10.69999 c 47.999996,-10.3 144,-32.3 240,-37.3 96,-5 192,5 288,32 96,26.99999 192,68.99999 288,69.29999 96,-0.3 192,-42.3 288,-58.59999 96,-15.7 192,-5.7 240,0 l 48,5.29999 v 192 h -48 c -48,0 -144,0 -240,0 -96,0 -192,0 -288,0 -96,0 -192,0 -288,0 -96,0 -192,0 -288,0 -96,0 -192.000004,0 -240,0 H 0 Z"
             id="path117"
             style="fill:#ffffff;fill-opacity:1" />
        </g>
      </g>
    </g>
  </g>
  <style
     id="style121"
     type="text/css">
	.st0{fill:#2EAA9E;}
</style>
</svg>
